<svg width="70" height="48" viewBox="0 0 70 48" fill="none" xmlns="http://www.w3.org/2000/svg">
<rect width="70" height="47.9945" rx="4" fill="#8457B1"/>
<path d="M30.4714 35.5337L30.9005 32.809L29.9448 32.7868H25.3815L28.5528 12.6809C28.5625 12.6202 28.5946 12.5636 28.6414 12.5234C28.6881 12.4832 28.7481 12.4611 28.8104 12.4611H36.5049C39.0594 12.4611 40.8221 12.9926 41.7426 14.0416C42.174 14.5337 42.4488 15.048 42.5818 15.614C42.7211 16.2078 42.7237 16.9173 42.5874 17.7826L42.5775 17.8458V18.4002L43.0092 18.6447C43.3726 18.8374 43.6611 19.058 43.8826 19.3107C44.2519 19.7315 44.4907 20.2662 44.5915 20.9003C44.6956 21.5523 44.6612 22.3282 44.4907 23.2067C44.2937 24.2172 43.9754 25.0973 43.5457 25.8175C43.1502 26.481 42.6465 27.0313 42.0486 27.4579C41.4776 27.8631 40.7992 28.1707 40.0322 28.3676C39.2889 28.561 38.4416 28.6587 37.5122 28.6587H36.9134C36.4853 28.6587 36.0692 28.8129 35.7429 29.0894C35.4156 29.3716 35.1988 29.7569 35.1325 30.1786L35.0874 30.4239L34.3294 35.2261L34.2949 35.4024C34.2859 35.4584 34.2703 35.4862 34.2474 35.5051C34.2269 35.5221 34.1974 35.5337 34.1686 35.5337H30.4714Z" fill="#253B80"/>
<path d="M43.4158 17.9108C43.3928 18.0576 43.3666 18.2077 43.3371 18.3619C42.3222 23.5711 38.8508 25.3706 34.4169 25.3706H32.1595C31.6173 25.3706 31.1604 25.7643 31.0759 26.2991L29.92 33.6286L29.5927 35.7061C29.5377 36.0572 29.8085 36.3738 30.1627 36.3738H34.1668C34.641 36.3738 35.0436 36.0294 35.1182 35.5619L35.1577 35.3584L35.9116 30.5748L35.9601 30.3125C36.0337 29.8434 36.4373 29.4989 36.9114 29.4989H37.5103C41.3895 29.4989 44.4264 27.9241 45.314 23.3668C45.6848 21.4631 45.4928 19.8735 44.5116 18.7556C44.2148 18.4185 43.8465 18.1388 43.4158 17.9108Z" fill="#B0BCD8"/>
<path d="M42.3523 17.4862C42.1974 17.4411 42.0373 17.4001 41.8731 17.3632C41.7083 17.3271 41.5393 17.2951 41.3655 17.2673C40.7567 17.1688 40.0899 17.1221 39.3753 17.1221H33.3445C33.1959 17.1221 33.055 17.1557 32.9286 17.2164C32.6505 17.3501 32.4438 17.6134 32.3938 17.9357L31.1106 26.0608L31.0738 26.2978C31.1583 25.763 31.6152 25.3693 32.1574 25.3693H34.4149C38.8487 25.3693 42.3204 23.569 43.3351 18.3606C43.3653 18.2064 43.3908 18.0563 43.4137 17.9095C43.157 17.7733 42.8788 17.6569 42.5794 17.5576C42.5057 17.533 42.4295 17.5092 42.3523 17.4862Z" fill="#E7EBF3"/>
<path d="M32.3973 17.9363C32.4474 17.6139 32.6542 17.3507 32.9321 17.2178C33.0594 17.1571 33.1997 17.1235 33.348 17.1235H39.3791C40.0936 17.1235 40.7605 17.1702 41.369 17.2686C41.543 17.2965 41.7121 17.3285 41.8769 17.3646C42.041 17.4015 42.2009 17.4425 42.356 17.4876C42.433 17.5106 42.5093 17.5344 42.5839 17.5582C42.8833 17.6574 43.1615 17.7747 43.4181 17.91C43.7202 15.985 43.4158 14.6743 42.3749 13.4874C41.2273 12.1808 39.1559 11.6215 36.5055 11.6215H28.8109C28.2694 11.6215 27.8078 12.0151 27.724 12.5508L24.5191 32.8634C24.4559 33.2653 24.7659 33.6279 25.1711 33.6279H29.9217L31.1144 26.0614L32.3973 17.9363Z" fill="white"/>
</svg>
